<mxfile host="app.diagrams.net" modified="2023-06-22T14:57:34.157Z" agent="Mozilla/5.0 (Windows NT 10.0; Win64; x64) AppleWebKit/537.36 (KHTML, like Gecko) Chrome/109.0.0.0 Safari/537.36" etag="sl8ij0RQebH_eiKWlGXW" version="21.5.0" type="device">
  <diagram name="Página-1" id="FkvN8VHucH-3UDO6zx6f">
    <mxGraphModel dx="1114" dy="584" grid="1" gridSize="10" guides="1" tooltips="1" connect="1" arrows="1" fold="1" page="1" pageScale="1" pageWidth="827" pageHeight="1169" math="0" shadow="0">
      <root>
        <mxCell id="0" />
        <mxCell id="1" parent="0" />
        <mxCell id="nTRkojDM7alF1QtBsdId-10" style="edgeStyle=orthogonalEdgeStyle;rounded=0;orthogonalLoop=1;jettySize=auto;html=1;exitX=0.5;exitY=1;exitDx=0;exitDy=0;" edge="1" parent="1" source="nTRkojDM7alF1QtBsdId-1" target="nTRkojDM7alF1QtBsdId-2">
          <mxGeometry relative="1" as="geometry" />
        </mxCell>
        <mxCell id="nTRkojDM7alF1QtBsdId-1" value="inicio" style="ellipse;whiteSpace=wrap;html=1;" vertex="1" parent="1">
          <mxGeometry x="354" y="50" width="120" height="80" as="geometry" />
        </mxCell>
        <mxCell id="nTRkojDM7alF1QtBsdId-11" style="edgeStyle=orthogonalEdgeStyle;rounded=0;orthogonalLoop=1;jettySize=auto;html=1;exitX=0.5;exitY=1;exitDx=0;exitDy=0;entryX=0.5;entryY=0;entryDx=0;entryDy=0;" edge="1" parent="1" source="nTRkojDM7alF1QtBsdId-2" target="nTRkojDM7alF1QtBsdId-3">
          <mxGeometry relative="1" as="geometry" />
        </mxCell>
        <mxCell id="nTRkojDM7alF1QtBsdId-2" value="menção" style="shape=parallelogram;perimeter=parallelogramPerimeter;whiteSpace=wrap;html=1;fixedSize=1;" vertex="1" parent="1">
          <mxGeometry x="354" y="160" width="120" height="60" as="geometry" />
        </mxCell>
        <mxCell id="nTRkojDM7alF1QtBsdId-12" style="edgeStyle=orthogonalEdgeStyle;rounded=0;orthogonalLoop=1;jettySize=auto;html=1;exitX=0.5;exitY=1;exitDx=0;exitDy=0;" edge="1" parent="1" source="nTRkojDM7alF1QtBsdId-3" target="nTRkojDM7alF1QtBsdId-8">
          <mxGeometry relative="1" as="geometry" />
        </mxCell>
        <mxCell id="nTRkojDM7alF1QtBsdId-14" style="edgeStyle=orthogonalEdgeStyle;rounded=0;orthogonalLoop=1;jettySize=auto;html=1;exitX=0;exitY=0.5;exitDx=0;exitDy=0;entryX=0.5;entryY=0;entryDx=0;entryDy=0;" edge="1" parent="1" source="nTRkojDM7alF1QtBsdId-3" target="nTRkojDM7alF1QtBsdId-6">
          <mxGeometry relative="1" as="geometry" />
        </mxCell>
        <mxCell id="nTRkojDM7alF1QtBsdId-15" style="edgeStyle=orthogonalEdgeStyle;rounded=0;orthogonalLoop=1;jettySize=auto;html=1;exitX=1;exitY=0.5;exitDx=0;exitDy=0;" edge="1" parent="1" source="nTRkojDM7alF1QtBsdId-3" target="nTRkojDM7alF1QtBsdId-5">
          <mxGeometry relative="1" as="geometry" />
        </mxCell>
        <mxCell id="nTRkojDM7alF1QtBsdId-3" value="sua menção é igual a &quot;I&quot; ou &quot;R&quot;?" style="rhombus;whiteSpace=wrap;html=1;" vertex="1" parent="1">
          <mxGeometry x="359.5" y="260" width="109" height="100" as="geometry" />
        </mxCell>
        <mxCell id="nTRkojDM7alF1QtBsdId-18" style="edgeStyle=orthogonalEdgeStyle;rounded=0;orthogonalLoop=1;jettySize=auto;html=1;exitX=0.5;exitY=1;exitDx=0;exitDy=0;entryX=1;entryY=0.5;entryDx=0;entryDy=0;" edge="1" parent="1" source="nTRkojDM7alF1QtBsdId-5" target="nTRkojDM7alF1QtBsdId-9">
          <mxGeometry relative="1" as="geometry" />
        </mxCell>
        <mxCell id="nTRkojDM7alF1QtBsdId-5" value="você esta reprovado" style="rounded=0;whiteSpace=wrap;html=1;" vertex="1" parent="1">
          <mxGeometry x="560" y="282.5" width="120" height="55" as="geometry" />
        </mxCell>
        <mxCell id="nTRkojDM7alF1QtBsdId-16" style="edgeStyle=orthogonalEdgeStyle;rounded=0;orthogonalLoop=1;jettySize=auto;html=1;exitX=1;exitY=0.5;exitDx=0;exitDy=0;entryX=0;entryY=0.5;entryDx=0;entryDy=0;" edge="1" parent="1" source="nTRkojDM7alF1QtBsdId-6" target="nTRkojDM7alF1QtBsdId-8">
          <mxGeometry relative="1" as="geometry" />
        </mxCell>
        <mxCell id="nTRkojDM7alF1QtBsdId-6" value="sua menção foi igual a &quot;B&quot; ou &quot;MB&quot;" style="rhombus;whiteSpace=wrap;html=1;" vertex="1" parent="1">
          <mxGeometry x="150" y="395" width="110" height="90" as="geometry" />
        </mxCell>
        <mxCell id="nTRkojDM7alF1QtBsdId-17" style="edgeStyle=orthogonalEdgeStyle;rounded=0;orthogonalLoop=1;jettySize=auto;html=1;exitX=0.5;exitY=1;exitDx=0;exitDy=0;" edge="1" parent="1" source="nTRkojDM7alF1QtBsdId-8" target="nTRkojDM7alF1QtBsdId-9">
          <mxGeometry relative="1" as="geometry" />
        </mxCell>
        <mxCell id="nTRkojDM7alF1QtBsdId-8" value="aprovado" style="rounded=0;whiteSpace=wrap;html=1;" vertex="1" parent="1">
          <mxGeometry x="354" y="410" width="120" height="60" as="geometry" />
        </mxCell>
        <mxCell id="nTRkojDM7alF1QtBsdId-9" value="fim" style="ellipse;whiteSpace=wrap;html=1;" vertex="1" parent="1">
          <mxGeometry x="354" y="560" width="120" height="80" as="geometry" />
        </mxCell>
      </root>
    </mxGraphModel>
  </diagram>
</mxfile>
